# xmcd
#
# Track frame offsets:
#	150
#	18352
#	31295
#
# Disc length: 685 seconds
#
# Revision: 1
# Processed by: cddbd v1.5.1PL2 Copyright (c) Steve Scherf et al.
# Submitted via: audiograbber 1.83.01
#
DISCID=1802ab03
DTITLE=Joe Cocker - You Can't Have My Heart
DYEAR=2002
DGENRE=Rock
TTITLE0=You Can't Have My Heart
TTITLE1=You Are So Beautiful (Live)
TTITLE2=You Can Leave Your Hat On (Live)
EXTD=
EXTT0=
EXTT1=
EXTT2=
PLAYORDER=
